<svg width="75" height="75" viewBox="0 0 75 75" fill="none" xmlns="http://www.w3.org/2000/svg">
<circle cx="37.5" cy="37.5" r="37.5" fill="#CE957B"/>
<path d="M47.7712 34.0482L25.2714 34.1448C24.5802 34.1477 24.0238 34.7089 24.0268 35.4001L24.059 42.9C24.0619 43.5913 24.6231 44.1476 25.3143 44.1447L47.8141 44.0481C48.5054 44.0451 49.0617 43.484 49.0587 42.7927L49.0265 35.2928C49.0236 34.6016 48.4624 34.0452 47.7712 34.0482ZM56.5157 32.7607L54.0158 32.7714C54.0069 30.7039 52.3172 29.0286 50.2497 29.0375L22.75 29.1555C20.6825 29.1644 19.0072 30.8541 19.0161 32.9216L19.0697 45.4215C19.0786 47.489 20.7683 49.1642 22.8358 49.1554L50.3355 49.0373C52.403 49.0285 54.0783 47.3387 54.0694 45.2713L56.5694 45.2605C57.9494 45.2546 59.0646 44.1298 59.0586 42.7498L59.0265 35.2499C59.0205 33.8712 57.8957 32.7547 56.5157 32.7607ZM51.5694 45.282C51.5724 45.972 51.0148 46.5344 50.3248 46.5373L22.8251 46.6554C22.1351 46.6583 21.5727 46.1007 21.5697 45.4108L21.5161 32.9109C21.5131 32.2209 22.0707 31.6585 22.7607 31.6555L50.2604 31.5375C50.9504 31.5345 51.5128 32.0921 51.5158 32.7821L51.5694 45.282ZM56.5587 42.7606L54.0587 42.7713L54.0265 35.2714L56.5265 35.2606L56.5587 42.7606Z" fill="black"/>
</svg>
