<svg width="75" height="75" viewBox="0 0 75 75" fill="none" xmlns="http://www.w3.org/2000/svg">
<circle cx="37.5" cy="37.5" r="37.5" fill="#FCFF72"/>
<g clip-path="url(#clip0_948_106)">
<path d="M61 15H13V63H61V15Z" fill="white" fill-opacity="0.01"/>
<path d="M50 32V52M50 52V59H24V52M50 52H57V32C57 29 55 25.5 52 23C49 20.5 43 19 43 19H31C31 19 25 20.5 22 23C19 25.5 17 29 17 32V52H24M24 52V32" stroke="black" stroke-width="4" stroke-linecap="round" stroke-linejoin="round"/>
<path d="M43 19C43 22.3137 40.3137 25 37 25C33.6863 25 31 22.3137 31 19" stroke="black" stroke-width="4" stroke-linecap="round" stroke-linejoin="round"/>
</g>
<defs>
<clipPath id="clip0_948_106">
<rect width="48" height="48" fill="white" transform="translate(13 15)"/>
</clipPath>
</defs>
</svg>
