<svg width="75" height="75" viewBox="0 0 75 75" fill="none" xmlns="http://www.w3.org/2000/svg">
<circle cx="37.5" cy="37.5" r="37.5" fill="#DB4F4F"/>
<g clip-path="url(#clip0_948_109)">
<path d="M55.5949 58.5786C55.1474 59.5141 54.3186 60.1002 53.3774 60.3213C53.8147 61.1703 53.9232 62.1778 53.4897 63.1127C52.7409 64.7351 50.8038 65.4452 49.167 64.7107C47.5163 63.9719 46.7959 62.0607 47.5512 60.4421C47.5754 60.3732 47.642 60.335 47.6769 60.2661L36.9661 55.5216L26.121 59.9699C26.1559 60.0351 26.2139 60.0764 26.2403 60.1421C26.945 61.7814 26.172 63.6756 24.5041 64.3725C22.8426 65.0589 20.9313 64.2899 20.2271 62.6469C19.8231 61.6982 19.9596 60.697 20.4194 59.8623C19.489 59.6137 18.6671 58.9994 18.2562 58.0576C17.5605 56.4189 18.3298 54.521 19.9999 53.8378C21.6614 53.1441 23.5721 53.9141 24.2769 55.5492C24.3032 55.6181 24.2946 55.6907 24.3209 55.7564L31.1683 52.9474L24.4031 49.9493C24.3789 50.0144 24.3854 50.0908 24.3542 50.1565C23.6076 51.7746 21.67 52.4885 20.0262 51.7539C18.3916 51.0156 17.6691 49.1039 18.4157 47.4821C18.8514 46.5467 19.6905 45.9674 20.6294 45.7363C20.1852 44.8905 20.0767 43.8829 20.5123 42.948C21.259 41.3257 23.1966 40.6155 24.8404 41.3501C26.4841 42.0852 27.2061 43.9964 26.4508 45.6187C26.4245 45.6876 26.3563 45.7289 26.3316 45.7877L37.0419 50.5423L47.88 46.0946C47.8456 46.0257 47.7854 45.9875 47.7543 45.9186C47.0549 44.2693 47.8279 42.3852 49.4958 41.6914C51.1573 41.0014 53.0702 41.764 53.7733 43.4097C54.1752 44.3552 54.0425 45.3659 53.5741 46.2017C54.5109 46.4465 55.3328 47.0507 55.7421 48.0058C56.4415 49.6413 55.6723 51.5286 54.0006 52.2224C52.3391 52.9162 50.4267 52.1498 49.7236 50.5111C49.6919 50.4459 49.7058 50.3695 49.6779 50.3038L42.8375 53.1091L49.5979 56.111C49.622 56.0458 49.615 55.9695 49.6467 55.9037C50.402 54.2857 52.3289 53.5718 53.9657 54.3063C55.6196 55.0452 56.34 56.9531 55.5949 58.5786Z" fill="black"/>
<path d="M50.1184 24.0977C50.1184 17.4208 44.2353 12 37 12C29.7535 12 23.8832 17.4208 23.8832 24.0977C23.8832 26.5266 24.6755 28.7765 26.0077 30.6744C25.1509 31.4365 24.6121 32.4965 24.6121 33.6794C24.6121 35.6325 26.0792 37.2023 28.0345 37.682V39.1384C28.0345 41.6606 30.1273 43.7271 32.6875 43.7271H41.3119C43.8721 43.7271 45.9634 41.6606 45.9634 39.1384V37.6751C47.9079 37.1954 49.3696 35.6256 49.3696 33.6794C49.3696 32.5028 48.8346 31.4434 47.9848 30.6807C49.3207 28.7796 50.1184 26.5303 50.1184 24.0977ZM31.2119 28.4346C29.2168 28.4346 27.5817 26.8886 27.5817 24.9774C27.5817 23.0663 29.2163 21.5166 31.2119 21.5166C33.2107 21.5166 34.8368 23.0658 34.8368 24.9774C34.8368 26.8891 33.2102 28.4346 31.2119 28.4346ZM37.2342 33.5379L33.6195 35.2705L37.2675 29.2805L40.7876 35.1533L37.2342 33.5379ZM42.7876 28.4346C40.7871 28.4346 39.1648 26.8886 39.1648 24.9774C39.1648 23.0663 40.7876 21.5166 42.7876 21.5166C44.781 21.5166 46.4108 23.0658 46.4108 24.9774C46.4108 26.8891 44.781 28.4346 42.7876 28.4346Z" fill="black"/>
</g>
<defs>
<clipPath id="clip0_948_109">
<rect width="38" height="53" fill="white" transform="translate(18 12)"/>
</clipPath>
</defs>
</svg>
