<svg width="75" height="75" viewBox="0 0 75 75" fill="none" xmlns="http://www.w3.org/2000/svg">
<circle cx="37.5" cy="37.5" r="37.5" fill="#C5E2CB"/>
<mask id="mask0_948_112" style="mask-type:alpha" maskUnits="userSpaceOnUse" x="9" y="11" width="56" height="56">
<rect x="9" y="11" width="56" height="56" fill="#D9D9D9"/>
</mask>
<g mask="url(#mask0_948_112)">
<path d="M27.6667 60V55.3333H34.6667V45.7667C31.3222 45.2222 28.5417 43.6667 26.325 41.1C24.1083 38.5333 23 35.5 23 32V18H51V32C51 35.5 49.8917 38.5333 47.675 41.1C45.4583 43.6667 42.6778 45.2222 39.3333 45.7667V55.3333H46.3333V60H27.6667ZM37 41.3333C39.1778 41.3333 41.0833 40.6722 42.7167 39.35C44.35 38.0278 45.4389 36.3556 45.9833 34.3333H28.0167C28.5611 36.3556 29.65 38.0278 31.2833 39.35C32.9167 40.6722 34.8222 41.3333 37 41.3333ZM27.6667 29.6667H46.3333V22.6667H27.6667V29.6667Z" fill="black"/>
</g>
</svg>
