<svg width="75" height="75" viewBox="0 0 75 75" fill="none" xmlns="http://www.w3.org/2000/svg">
<circle cx="37.5" cy="37.5" r="37.5" fill="#9C74BC"/>
<path d="M37.2438 13.061C27.1731 13.061 21.8875 20.3417 21.8875 26.9657C21.8875 34.3976 29.4325 39.0709 29.4325 51.2242H37.0731C37.0731 51.2242 44.2488 51.2551 44.4663 51.2551C44.6838 39.0124 52.1125 34.1965 52.1125 26.9073C52.1144 20.6871 47.3144 13.061 37.2438 13.061ZM43.5138 53.022H30.3888C29.8713 53.022 29.4513 53.407 29.4513 53.8813C29.4513 54.3557 29.8713 54.7407 30.3888 54.7407H43.5138C44.0294 54.7407 44.4513 54.3557 44.4513 53.8813C44.4513 53.407 44.0294 53.022 43.5138 53.022ZM43.5138 56.4595H30.3888C29.8713 56.4595 29.4513 56.8445 29.4513 57.3188C29.4513 57.7932 29.8713 58.1782 30.3888 58.1782H43.5138C44.0294 58.1782 44.4513 57.7932 44.4513 57.3188C44.4513 56.8445 44.0294 56.4595 43.5138 56.4595ZM31.3263 59.897C31.3263 59.897 31.3263 60.6653 31.3263 61.6157C31.3263 62.5645 32.1644 63.3345 33.2013 63.3345H40.7275C41.7644 63.3345 42.6025 62.5645 42.6025 61.6157C42.6025 60.6653 42.6025 59.897 42.6025 59.897H31.3263Z" fill="black"/>
</svg>
