<svg width="75" height="75" viewBox="0 0 75 75" fill="none" xmlns="http://www.w3.org/2000/svg">
<circle cx="37.5" cy="37.5" r="37.5" fill="#439F9A"/>
<g clip-path="url(#clip0_948_107)">
<path fill-rule="evenodd" clip-rule="evenodd" d="M29.4688 19C28.3895 19 27.4033 19.3716 26.6562 19.9811C25.9092 19.3716 24.923 19 23.8438 19C22.7645 19 21.7783 19.3716 21.0312 19.9811C20.2842 19.3716 19.298 19 18.2188 19C15.8925 19 14 20.7242 14 22.8438V33.0938C14 36.1867 15.7873 37.8158 17.2245 39.1246C18.5661 40.3472 19.625 41.3117 19.625 43.3438V56.1562C19.625 58.2758 21.5175 60 23.8438 60C26.17 60 28.0625 58.2758 28.0625 56.1562V43.3438C28.0625 41.3117 29.1214 40.3472 30.463 39.1246C31.8995 37.8158 33.6875 36.1867 33.6875 33.0938V22.8438C33.6875 20.7242 31.795 19 29.4688 19ZM30.875 33.0938C30.875 35.1258 29.8161 36.0903 28.4745 37.3129C27.038 38.6217 25.25 40.2508 25.25 43.3438V56.1562C25.25 56.8645 24.6211 57.4375 23.8438 57.4375C23.0664 57.4375 22.4375 56.8645 22.4375 56.1562V43.3438C22.4375 40.2508 20.6495 38.6217 19.213 37.3129C17.8714 36.0903 16.8125 35.1258 16.8125 33.0938V22.8438C16.8125 22.1355 17.4414 21.5625 18.2188 21.5625C18.9961 21.5625 19.625 22.1355 19.625 22.8438V30.5312C19.625 31.2395 20.2539 31.8125 21.0312 31.8125C21.8086 31.8125 22.4375 31.2395 22.4375 30.5312V22.8438C22.4375 22.1355 23.0664 21.5625 23.8438 21.5625C24.6211 21.5625 25.25 22.1355 25.25 22.8438V30.5312C25.25 31.2395 25.8789 31.8125 26.6562 31.8125C27.4336 31.8125 28.0625 31.2395 28.0625 30.5312V22.8438C28.0625 22.1355 28.6914 21.5625 29.4688 21.5625C30.2461 21.5625 30.875 22.1355 30.875 22.8438V33.0938ZM55.7755 39.8754C54.4339 38.6528 53.375 37.6883 53.375 35.6562V22.8438C53.375 20.7242 51.4825 19 49.1562 19C46.83 19 44.9375 20.7242 44.9375 22.8438V35.6562C44.9375 37.6883 43.8786 38.6528 42.537 39.8754C41.1005 41.1842 39.3125 42.8133 39.3125 45.9062C39.3125 46.4819 39.4236 60 49.1562 60C58.8889 60 59 46.4819 59 45.9062C59 42.8133 57.212 41.1842 55.7755 39.8754ZM49.1562 57.4375C42.2266 57.4375 42.125 46.0315 42.125 45.9062C42.125 43.8742 43.1839 42.9097 44.5255 41.6871C45.962 40.3783 47.75 38.7492 47.75 35.6562V22.8438C47.75 22.1355 48.3789 21.5625 49.1562 21.5625C49.9336 21.5625 50.5625 22.1355 50.5625 22.8438V35.6562C50.5625 38.7492 52.3505 40.3783 53.787 41.6871C55.1286 42.9097 56.1875 43.8742 56.1875 45.9062C56.1875 46.0212 56.1066 57.4375 49.1562 57.4375Z" fill="black"/>
</g>
<defs>
<clipPath id="clip0_948_107">
<rect width="45" height="41" fill="white" transform="translate(14 19)"/>
</clipPath>
</defs>
</svg>
