<svg width="75" height="75" viewBox="0 0 75 75" fill="none" xmlns="http://www.w3.org/2000/svg">
<circle cx="37.5" cy="37.5" r="37.5" fill="#7E8BAD"/>
<g clip-path="url(#clip0_948_114)">
<path d="M47 26.9854V56.292C47 57.6569 46 58.781 44.7857 58.781H27.6071C26.3929 58.781 25.3929 57.6569 25.3929 56.292V26.9854H47ZM41.3929 30.2372V55.4489H42.6786V30.2372H41.3929ZM35.5714 30.2372V55.4489H36.8571V30.2372H35.5714ZM29.75 30.2372V55.4489H31.0357V30.2372H29.75ZM31.1786 20.2007V18.1131C31.1786 16.7883 32.1071 15.7445 33.2857 15.7445H39.1429C40.3214 15.7445 41.25 16.7883 41.25 18.1131V20.2007H47.7143C48.9286 20.2007 49.9286 21.3248 49.9286 22.6898V24.416H22.5V22.6496C22.5 21.2847 23.5 20.1606 24.7143 20.1606H31.1786V20.2007ZM33.2857 17.3503C32.9286 17.3503 32.6429 17.6715 32.6429 18.073V20.1606H39.8214V18.073C39.8214 17.6715 39.5357 17.3503 39.1786 17.3503H33.2857Z" fill="black"/>
</g>
<defs>
<clipPath id="clip0_948_114">
<rect width="35" height="55" fill="white" transform="translate(20 9)"/>
</clipPath>
</defs>
</svg>
