<svg width="75" height="75" viewBox="0 0 75 75" fill="none" xmlns="http://www.w3.org/2000/svg">
<circle cx="37.5" cy="37.5" r="37.5" fill="#B0C4F9"/>
<mask id="mask0_948_104" style="mask-type:alpha" maskUnits="userSpaceOnUse" x="12" y="15" width="50" height="48">
<rect x="12" y="15" width="50" height="47.1429" fill="#D9D9D9"/>
</mask>
<g mask="url(#mask0_948_104)">
<path d="M24.5 58.2142C23.3541 58.2142 22.3736 57.8298 21.5583 57.0611C20.7416 56.2911 20.3333 55.366 20.3333 54.2856V22.857C20.3333 21.7767 20.7416 20.8515 21.5583 20.0815C22.3736 19.3128 23.3541 18.9285 24.5 18.9285H41.1666L53.6666 30.7142V54.2856C53.6666 55.366 53.259 56.2911 52.4437 57.0611C51.6271 57.8298 50.6458 58.2142 49.5 58.2142H24.5ZM39.0833 32.6785V22.857H24.5V54.2856H49.5V32.6785H39.0833Z" fill="black"/>
</g>
</svg>
