<svg width="75" height="75" viewBox="0 0 75 75" fill="none" xmlns="http://www.w3.org/2000/svg">
<circle cx="37.5" cy="37.5" r="37.5" fill="#E1AED1"/>
<path d="M41.9805 18.9688H42.2344C42.793 18.9688 43.25 18.5961 43.25 18.1406C43.25 17.6852 42.793 17.3125 42.2344 17.3125H41.9805H32.332H32.0781C31.5195 17.3125 31.0625 17.6852 31.0625 18.1406C31.0625 18.5961 31.5195 18.9688 32.0781 18.9688H32.332C32.332 18.9688 27 23.9582 27 33.875C27 37.1875 27 37.1875 27 37.1875V37.8293C27 37.9535 27.0254 38.0777 27.1016 38.202L27.2793 38.4711C27.4316 38.6988 27.4316 38.968 27.2793 39.2164L27.1016 39.5062C27.0254 39.6305 27 39.7547 27 39.8789V52.7148C27 52.8391 27.0508 52.984 27.127 53.1082L27.2793 53.3566C27.4316 53.5844 27.4316 53.8535 27.3047 54.102L27.127 54.4125C27.0508 54.516 27.0254 54.6402 27.0254 54.7645V56.2344C27.0254 58.5117 29.3105 60.375 32.1035 60.375H42.2598C45.0527 60.375 47.3379 58.5117 47.3379 56.2344V54.7645C47.3379 54.6402 47.3125 54.516 47.2363 54.3918L47.0586 54.102C46.9062 53.8742 46.9062 53.6051 47.0586 53.3566L47.2363 53.0668C47.3125 52.9426 47.3379 52.8184 47.3379 52.6941V39.8375C47.3379 39.7133 47.3125 39.5891 47.2363 39.4648L47.0586 39.175C46.9062 38.9473 46.9062 38.6781 47.0586 38.4297L47.2363 38.1398C47.3125 38.0156 47.3379 37.8914 47.3379 37.7672V37.1461C47.3379 37.1461 47.3379 37.1461 47.3379 33.8336C47.3125 23.9582 41.9805 18.9688 41.9805 18.9688ZM45.2812 37.1875V37.6223L45.2051 37.7465C44.7734 38.4504 44.7734 39.2785 45.2051 39.9617L45.2812 40.0652V52.5285L45.2051 52.6527C44.7988 53.3359 44.7988 54.1641 45.2051 54.868L45.2812 54.9715V56.2344C45.2812 57.6008 43.9102 58.7188 42.2344 58.7188H32.0781C30.4023 58.7188 29.0312 57.6008 29.0312 56.2344V54.9508L29.1074 54.8059C29.5137 54.102 29.5137 53.2738 29.0566 52.5906L29.0312 52.5078V40.0652L29.1074 39.941C29.5391 39.2371 29.5391 38.409 29.1074 37.7258L29.0566 37.6223V37.1875V33.875C29.0566 24.7863 33.8555 20.0867 33.8809 20.0453C34.2109 19.7348 34.3887 19.3621 34.3887 18.948H39.9746C39.9746 19.3414 40.1523 19.7348 40.4824 20.0453C40.4824 20.066 41.6504 21.1633 42.8184 23.3578C43.9609 25.4902 45.3066 29.0305 45.3066 33.875V37.1875H45.2812Z" fill="black"/>
<path d="M42.2344 14.8281C42.2344 14.3727 41.7773 14 41.2188 14H33.0938C32.5352 14 32.0781 14.3727 32.0781 14.8281V16.8984H42.2344V14.8281ZM33.3477 16.0703C33.3477 16.1945 33.2461 16.2773 33.0938 16.2773C32.9414 16.2773 32.8398 16.1945 32.8398 16.0703V14.8281C32.8398 14.7039 32.9414 14.6211 33.0938 14.6211C33.2461 14.6211 33.3477 14.7039 33.3477 14.8281V16.0703ZM34.3633 16.0703C34.3633 16.1945 34.2617 16.2773 34.1094 16.2773C33.957 16.2773 33.8555 16.1945 33.8555 16.0703V14.8281C33.8555 14.7039 33.957 14.6211 34.1094 14.6211C34.2617 14.6211 34.3633 14.7039 34.3633 14.8281V16.0703ZM35.3789 16.0703C35.3789 16.1945 35.2773 16.2773 35.125 16.2773C34.9727 16.2773 34.8711 16.1945 34.8711 16.0703V14.8281C34.8711 14.7039 34.9727 14.6211 35.125 14.6211C35.2773 14.6211 35.3789 14.7039 35.3789 14.8281V16.0703ZM36.3945 16.0703C36.3945 16.1945 36.293 16.2773 36.1406 16.2773C35.9883 16.2773 35.8867 16.1945 35.8867 16.0703V14.8281C35.8867 14.7039 35.9883 14.6211 36.1406 14.6211C36.293 14.6211 36.3945 14.7039 36.3945 14.8281V16.0703ZM37.4102 16.0703C37.4102 16.1945 37.3086 16.2773 37.1562 16.2773C37.0039 16.2773 36.9023 16.1945 36.9023 16.0703V14.8281C36.9023 14.7039 37.0039 14.6211 37.1562 14.6211C37.3086 14.6211 37.4102 14.7039 37.4102 14.8281V16.0703ZM38.4258 16.0703C38.4258 16.1945 38.3242 16.2773 38.1719 16.2773C38.0195 16.2773 37.918 16.1945 37.918 16.0703V14.8281C37.918 14.7039 38.0195 14.6211 38.1719 14.6211C38.3242 14.6211 38.4258 14.7039 38.4258 14.8281V16.0703ZM39.4414 16.0703C39.4414 16.1945 39.3398 16.2773 39.1875 16.2773C39.0352 16.2773 38.9336 16.1945 38.9336 16.0703V14.8281C38.9336 14.7039 39.0352 14.6211 39.1875 14.6211C39.3398 14.6211 39.4414 14.7039 39.4414 14.8281V16.0703ZM40.457 16.0703C40.457 16.1945 40.3555 16.2773 40.2031 16.2773C40.0508 16.2773 39.9492 16.1945 39.9492 16.0703V14.8281C39.9492 14.7039 40.0508 14.6211 40.2031 14.6211C40.3555 14.6211 40.457 14.7039 40.457 14.8281V16.0703ZM41.4727 16.0703C41.4727 16.1945 41.3711 16.2773 41.2188 16.2773C41.0664 16.2773 40.9648 16.1945 40.9648 16.0703V14.8281C40.9648 14.7039 41.0664 14.6211 41.2188 14.6211C41.3711 14.6211 41.4727 14.7039 41.4727 14.8281V16.0703Z" fill="black"/>
<path d="M40.7363 32.9226C40.6348 32.9226 40.5332 32.9226 40.4063 32.9019L37.0293 32.55L33.6777 32.198C33.6523 32.198 33.627 32.198 33.6016 32.198C33.5762 32.198 33.5508 32.198 33.5254 32.198L31.1641 32.4464C31.1133 32.4464 31.0879 32.4671 31.0625 32.4671V56.2343C31.0625 56.6898 31.5195 57.0625 32.0781 57.0625H42.2344C42.793 57.0625 43.25 56.6898 43.25 56.2343V32.7363C43.1992 32.7156 43.1484 32.7156 43.0723 32.7156C43.0469 32.7156 43.0215 32.7156 42.9961 32.7156L41.041 32.9226C40.9395 32.9226 40.8379 32.9226 40.7363 32.9226Z" fill="black"/>
</svg>
