<svg width="75" height="75" viewBox="0 0 75 75" fill="none" xmlns="http://www.w3.org/2000/svg">
<circle cx="37.5" cy="37.5" r="37.5" fill="#B4FF69"/>
<g clip-path="url(#clip0_948_113)">
<path d="M37 14C23.1922 14 12 25.1938 12 39C12 52.8062 23.1922 64 37 64C50.8078 64 62 52.8062 62 39C62 25.1938 50.8078 14 37 14ZM47.6437 21.7219C48.9641 22.5359 50.2203 23.4938 51.3641 24.6376C52.5078 25.7814 53.4656 27.0376 54.2797 28.3579L47.125 31.6939C46.7407 31.1595 46.3203 30.6439 45.8406 30.1627C45.3593 29.6814 44.8422 29.2627 44.3094 28.8767L47.6437 21.7219ZM44.8125 39C44.8125 43.3141 41.3156 46.8125 37 46.8125C32.6844 46.8125 29.1875 43.3141 29.1875 39C29.1875 34.6859 32.6844 31.1875 37 31.1875C41.3156 31.1875 44.8125 34.6859 44.8125 39ZM37 18.7172C39.1609 18.7172 41.3218 19.0593 43.3938 19.7437L40.0594 26.8937C38.0516 26.3875 35.9485 26.3875 33.9391 26.8937L30.6062 19.7453C32.6781 19.0594 34.8391 18.7172 37 18.7172ZM22.6375 24.6375C23.7813 23.4937 25.0359 22.5344 26.3578 21.7218L29.6922 28.8765C29.1594 29.2624 28.6437 29.6812 28.1609 30.1624C27.6797 30.6437 27.2625 31.1593 26.875 31.6936L19.7219 28.3561C20.5344 27.0359 21.4938 25.7813 22.6375 24.6375ZM17.7438 45.3922C17.0594 43.3187 16.7188 41.1593 16.7188 39C16.7188 36.8391 17.0609 34.6781 17.7453 32.6062L24.8938 35.9406C24.3891 37.9484 24.3876 40.0516 24.8938 42.0593L17.7438 45.3922ZM26.3578 56.2781C25.0375 55.4641 23.7813 54.5062 22.6375 53.3624C21.4953 52.2187 20.5359 50.9624 19.7218 49.6422L26.8749 46.3062C27.2624 46.839 27.6812 47.3578 28.1609 47.8374C28.6421 48.3187 29.1609 48.7375 29.6921 49.1234L26.3578 56.2781ZM37 59.2812C34.8391 59.2812 32.6797 58.9391 30.6063 58.2562L33.9406 51.1062C35.9484 51.6109 38.0516 51.6109 40.0593 51.1062L43.3937 58.2562C41.3203 58.9406 39.1609 59.2812 37 59.2812ZM51.3625 53.3625C50.2188 54.5063 48.9625 55.4641 47.6422 56.2782L44.3063 49.125C44.8391 48.7391 45.3563 48.3203 45.8375 47.8391C46.3187 47.3579 46.7375 46.8406 47.1234 46.3078L54.2766 49.6422C53.4641 50.9641 52.5078 52.2188 51.3625 53.3625ZM49.1063 42.0578C49.6109 40.05 49.6109 37.9469 49.1063 35.9391L56.2547 32.6047C56.9391 34.6781 57.2812 36.8375 57.2812 38.9984C57.2812 41.1578 56.9391 43.3172 56.2562 45.3907L49.1063 42.0578Z" fill="black"/>
</g>
<defs>
<clipPath id="clip0_948_113">
<rect width="50" height="50" fill="white" transform="translate(12 14)"/>
</clipPath>
</defs>
</svg>
