<svg width="75" height="75" viewBox="0 0 75 75" fill="none" xmlns="http://www.w3.org/2000/svg">
<circle cx="37.5" cy="37.5" r="37.5" fill="#FFD789"/>
<path d="M56.4062 55.0176C56.4062 57.769 54.1753 60 51.4239 60H22.5761C19.8248 60 17.5938 57.769 17.5938 55.0176V18.9824C17.5938 16.231 19.8248 14 22.5761 14H51.4239C54.1753 14 56.4062 16.231 56.4062 18.9824V55.0176ZM53.5312 18.9824C53.5312 17.8187 52.5883 16.875 51.4239 16.875H22.5761C21.4125 16.875 20.4688 17.8187 20.4688 18.9824V55.0176C20.4688 56.182 21.4125 57.125 22.5761 57.125H51.4239C52.5883 57.125 53.5312 56.182 53.5312 55.0176V18.9824Z" fill="black"/>
<path d="M36.7341 53.3838C30.2445 53.3838 24.9645 48.1039 24.9645 41.6143C24.9645 35.1247 30.2445 29.8447 36.7341 29.8447C43.2237 29.8447 48.5036 35.1247 48.5036 41.6143C48.5036 48.1039 43.2237 53.3838 36.7341 53.3838ZM36.7341 31.2822C31.0365 31.2822 26.402 35.9167 26.402 41.6143C26.402 47.3125 31.0365 51.9463 36.7341 51.9463C42.4316 51.9463 47.0661 47.3125 47.0661 41.6143C47.0661 35.9167 42.4316 31.2822 36.7341 31.2822Z" fill="black"/>
<path d="M33.4875 48.6472C33.3768 48.6472 33.2639 48.6221 33.159 48.5674C30.5428 47.2205 28.9177 44.5568 28.9177 41.6143C28.9177 41.2168 29.2389 40.8955 29.6364 40.8955C30.0339 40.8955 30.3552 41.2168 30.3552 41.6143C30.3552 44.0149 31.682 46.1898 33.8174 47.2895C34.1703 47.4706 34.309 47.9033 34.1272 48.2577C33.9999 48.5056 33.7484 48.6472 33.4875 48.6472Z" fill="black"/>
<path d="M36.7341 49.4309C36.3366 49.4309 36.0153 49.1096 36.0153 48.7121C36.0153 48.3147 36.3366 47.9934 36.7341 47.9934C37.1682 47.9934 37.6023 47.9495 38.0199 47.864C38.4131 47.7857 38.7883 48.0351 38.8688 48.4225C38.9485 48.8113 38.6991 49.1908 38.3103 49.272C37.7957 49.3777 37.2659 49.4309 36.7341 49.4309Z" fill="black"/>
<path d="M54.7028 26.2188H18.7653C18.3679 26.2188 18.0466 25.8975 18.0466 25.5C18.0466 25.1025 18.3679 24.7812 18.7653 24.7812H54.7028C55.101 24.7812 55.4216 25.1025 55.4216 25.5C55.4216 25.8975 55.101 26.2188 54.7028 26.2188Z" fill="black"/>
<path d="M28.8278 21.9062H27.3903C26.9929 21.9062 26.6716 21.585 26.6716 21.1875C26.6716 20.79 26.9929 20.4688 27.3903 20.4688H28.8278C29.2253 20.4688 29.5466 20.79 29.5466 21.1875C29.5466 21.585 29.2253 21.9062 28.8278 21.9062Z" fill="black"/>
<path d="M24.5153 21.9062H23.0778C22.6804 21.9062 22.3591 21.585 22.3591 21.1875C22.3591 20.79 22.6804 20.4688 23.0778 20.4688H24.5153C24.9128 20.4688 25.2341 20.79 25.2341 21.1875C25.2341 21.585 24.9128 21.9062 24.5153 21.9062Z" fill="black"/>
</svg>
