<svg width="75" height="75" viewBox="0 0 75 75" fill="none" xmlns="http://www.w3.org/2000/svg">
<circle cx="37.5" cy="37.5" r="37.5" fill="#EAD6BE"/>
<path d="M54.6875 33.8906C54.6875 33.7187 54.6875 33.7187 54.6875 33.5469C54.6875 33.375 54.6875 33.375 54.5156 33.2031C54.5156 33.2031 54.5156 33.2031 54.5156 33.0312L47.8125 21.5156V15.1562C47.8125 14.125 47.125 13.4375 46.0938 13.4375H28.9062C27.875 13.4375 27.1875 14.125 27.1875 15.1562V21.5156L20.4844 33.0312C20.4844 33.0312 20.4844 33.0312 20.4844 33.2031C20.4844 33.375 20.4844 33.375 20.3125 33.5469C20.3125 33.7187 20.3125 33.7187 20.3125 33.8906C20.3125 33.8906 20.3125 33.8906 20.3125 34.0625V59.8438C20.3125 60.875 21 61.5625 22.0312 61.5625H52.9688C54 61.5625 54.6875 60.875 54.6875 59.8438V33.8906ZM28.9062 25.4688L32.6875 32.1719H24.9531L28.9062 25.4688ZM36.6406 32.1719L31.8281 23.75H45.0625L49.875 32.1719H36.6406ZM30.625 16.875H44.375V20.3125H30.625V16.875ZM23.75 35.6094H34.0625V58.125H23.75V35.6094ZM51.25 58.125H37.5V35.6094H51.25V58.125Z" fill="black"/>
<path d="M27.1875 42.6562H30.625C31.6563 42.6562 32.3438 41.9688 32.3438 40.9375C32.3438 39.9062 31.6563 39.2188 30.625 39.2188H27.1875C26.1562 39.2188 25.4688 39.9062 25.4688 40.9375C25.4688 41.9688 26.1562 42.6562 27.1875 42.6562Z" fill="black"/>
<path d="M30.625 45.2344H27.1875C26.1562 45.2344 25.4688 45.9219 25.4688 46.9531C25.4688 47.9844 26.1562 48.6719 27.1875 48.6719H30.625C31.6563 48.6719 32.3438 47.9844 32.3438 46.9531C32.3438 45.9219 31.6563 45.2344 30.625 45.2344Z" fill="black"/>
<path d="M30.625 51.25H27.1875C26.1562 51.25 25.4688 51.9375 25.4688 52.9688C25.4688 54 26.1562 54.6875 27.1875 54.6875H30.625C31.6563 54.6875 32.3438 54 32.3438 52.9688C32.3438 51.9375 31.6563 51.25 30.625 51.25Z" fill="black"/>
</svg>
