<svg width="69" height="67" viewBox="0 0 69 67" fill="none" xmlns="http://www.w3.org/2000/svg">
<path d="M68.043 7.21287L61.8704 0.969065C61.233 0.323499 60.395 0 59.5584 0C58.7219 0 57.8853 0.322067 57.248 0.967633L52.3104 5.95466L63.1054 16.8706L68.043 11.885C69.319 10.5939 69.319 8.49971 68.043 7.21287Z" fill="white"/>
<path d="M20.2589 38.3603L31.0553 49.2777L60.7949 19.2095L49.9985 8.29214L20.2589 38.3603Z" fill="white"/>
<path d="M17.9286 40.6964L15.6238 53.9398L28.725 51.6123L17.9286 40.6964Z" fill="white"/>
<path d="M47.7742 59.8415H7.06714V18.6083H35.795L42.8748 11.4513H4.57011C2.05613 11.4513 0 13.534 0 16.0805V62.3708C0 64.9173 2.05613 67 4.57011 67H50.2698C52.7838 67 54.8399 64.9173 54.8399 62.3708V29.2752L47.7742 36.4194V59.8415Z" fill="white"/>
</svg>
