<svg width="18" height="9" viewBox="0 0 18 9" fill="none" xmlns="http://www.w3.org/2000/svg">
<path d="M17.1385 0.369748C17.0223 0.252587 16.884 0.159594 16.7317 0.0961334C16.5794 0.0326725 16.416 0 16.251 0C16.086 0 15.9226 0.0326725 15.7703 0.0961334C15.6179 0.159594 15.4797 0.252587 15.3635 0.369748L9.63849 6.09475C9.52229 6.21191 9.38404 6.3049 9.23171 6.36836C9.07939 6.43182 8.91601 6.4645 8.75099 6.4645C8.58598 6.4645 8.42259 6.43182 8.27027 6.36836C8.11795 6.3049 7.9797 6.21191 7.86349 6.09475L2.13849 0.369748C2.02229 0.252587 1.88404 0.159594 1.73171 0.0961334C1.57939 0.0326725 1.41601 0 1.25099 0C1.08598 0 0.922594 0.0326725 0.77027 0.0961334C0.617946 0.159594 0.479694 0.252587 0.363491 0.369748C0.130677 0.603951 0 0.920766 0 1.251C0 1.58123 0.130677 1.89804 0.363491 2.13225L6.10099 7.86975C6.80412 8.572 7.75724 8.96645 8.75099 8.96645C9.74474 8.96645 10.6979 8.572 11.401 7.86975L17.1385 2.13225C17.3713 1.89804 17.502 1.58123 17.502 1.251C17.502 0.920766 17.3713 0.603951 17.1385 0.369748V0.369748Z" fill="white"/>
</svg>
