<svg width="79" height="63" viewBox="0 0 79 63" fill="none" xmlns="http://www.w3.org/2000/svg">
<path d="M50.2727 62.9345C42.253 62.9345 35.4602 59.9271 29.8943 53.9121C24.3284 47.8972 21.5455 40.5564 21.5455 31.8897C21.5455 23.2231 24.3284 15.8823 29.8943 9.86736C35.4602 3.85243 42.253 0.844971 50.2727 0.844971C58.2924 0.844971 65.0852 3.85243 70.6511 9.86736C76.217 15.8823 79 23.2231 79 31.8897C79 40.5564 76.217 47.8972 70.6511 53.9121C65.0852 59.9271 58.2924 62.9345 50.2727 62.9345ZM22.8023 61.7703C16.0394 60.8649 10.5483 57.5179 6.32898 51.7293C2.10966 45.9407 0 39.3276 0 31.8897C0 24.4519 2.10966 17.8388 6.32898 12.0502C10.5483 6.26164 16.0394 2.91462 22.8023 2.00915V7.63602C17.5356 8.67084 13.3163 11.5004 10.1443 16.1248C6.97235 20.7492 5.38636 26.0042 5.38636 31.8897C5.38636 37.7753 6.97235 43.0303 10.1443 47.6547C13.3163 52.279 17.5356 55.1087 22.8023 56.1435V61.7703ZM50.2727 57.1136C56.6765 57.1136 62.1676 54.6397 66.746 49.692C71.3244 44.7442 73.6136 38.8101 73.6136 31.8897C73.6136 24.9693 71.3244 19.0353 66.746 14.0875C62.1676 9.13975 56.6765 6.66587 50.2727 6.66587C43.8689 6.66587 38.3778 9.13975 33.7994 14.0875C29.221 19.0353 26.9318 24.9693 26.9318 31.8897C26.9318 38.8101 29.221 44.7442 33.7994 49.692C38.3778 54.6397 43.8689 57.1136 50.2727 57.1136Z" fill="#D6C63D"/>
</svg>
