<svg width="24" height="33" viewBox="0 0 24 33" fill="none" xmlns="http://www.w3.org/2000/svg">
<path d="M11.73 14.46C13.79 14.46 15.46 12.79 15.46 10.73C15.46 8.66998 13.79 7 11.73 7C9.66998 7 8 8.66998 8 10.73C8 12.79 9.66998 14.46 11.73 14.46Z" fill="white"/>
<path d="M11.78 9.89921e-10C8.6652 0.00260157 5.67799 1.23769 3.47081 3.4355C1.26363 5.6333 0.0158503 8.61524 0 11.73C0 16.4 2.62 20.31 4.54 23.16L4.89 23.68C6.80028 26.4486 8.84957 29.1187 11.03 31.68L11.79 32.57L12.55 31.68C14.7302 29.1185 16.7794 26.4484 18.69 23.68L19.04 23.15C20.95 20.3 23.57 16.4 23.57 11.73C23.5541 8.61351 22.305 5.63006 20.0956 3.43197C17.8863 1.23388 14.8965 -4.03561e-05 11.78 9.89921e-10ZM11.78 17C10.4826 17 9.21425 16.6153 8.13546 15.8944C7.05667 15.1736 6.21586 14.1491 5.71935 12.9504C5.22284 11.7517 5.09293 10.4327 5.34605 9.16021C5.59917 7.88769 6.22395 6.71881 7.14138 5.80138C8.05881 4.88395 9.22769 4.25917 10.5002 4.00605C11.7727 3.75293 13.0917 3.88284 14.2904 4.37935C15.4891 4.87586 16.5136 5.71667 17.2344 6.79546C17.9553 7.87425 18.34 9.14255 18.34 10.44C18.34 12.1798 17.6489 13.8484 16.4186 15.0786C15.1884 16.3089 13.5198 17 11.78 17Z" fill="white"/>
</svg>
