<?xml version="1.0" encoding="iso-8859-1"?>
<!-- Generator: Adobe Illustrator 16.0.0, SVG Export Plug-In . SVG Version: 6.00 Build 0)  -->
<!DOCTYPE svg PUBLIC "-//W3C//DTD SVG 1.1//EN" "http://www.w3.org/Graphics/SVG/1.1/DTD/svg11.dtd">
<svg version="1.1" id="Capa_1" xmlns="http://www.w3.org/2000/svg" xmlns:xlink="http://www.w3.org/1999/xlink" x="0px" y="0px"
	 width="64px" height="64px" viewBox="0 0 64 64" style="enable-background:new 0 0 64 64;" xml:space="preserve">
<g>
	<g>
		<g>
			<g>
				<path d="M59,57.068C59,60.896,55.896,64,52.068,64H11.932C8.104,64,5,60.896,5,57.068V6.932C5,3.104,8.104,0,11.932,0h40.136
					C55.896,0,59,3.104,59,6.932V57.068z M55,6.932C55,5.313,53.688,4,52.068,4H11.932C10.313,4,9,5.313,9,6.932v50.136
					C9,58.688,10.313,60,11.932,60h40.136C53.688,60,55,58.688,55,57.068V6.932z"/>
			</g>
		</g>
		<g>
			<path d="M31.63,54.795c-9.029,0-16.375-7.346-16.375-16.375c0-9.029,7.346-16.375,16.375-16.375
				c9.029,0,16.375,7.346,16.375,16.375C48.005,47.449,40.659,54.795,31.63,54.795z M31.63,24.045
				c-7.927,0-14.375,6.448-14.375,14.375c0,7.928,6.448,14.375,14.375,14.375s14.375-6.447,14.375-14.375
				C46.005,30.493,39.557,24.045,31.63,24.045z"/>
		</g>
		<g>
			<path d="M27.113,48.205c-0.154,0-0.311-0.035-0.457-0.111c-3.64-1.874-5.901-5.58-5.901-9.674c0-0.553,0.447-1,1-1
				c0.553,0,1,0.447,1,1c0,3.34,1.846,6.366,4.817,7.896c0.491,0.252,0.684,0.854,0.431,1.347
				C27.826,48.008,27.476,48.205,27.113,48.205z"/>
		</g>
		<g>
			<path d="M31.63,49.295c-0.553,0-1-0.447-1-1s0.447-1,1-1c0.604,0,1.208-0.061,1.789-0.18c0.547-0.109,1.069,0.238,1.181,0.777
				c0.111,0.541-0.236,1.069-0.777,1.182C33.107,49.221,32.37,49.295,31.63,49.295z"/>
		</g>
		<g>
			<path d="M56.63,17h-50c-0.553,0-1-0.447-1-1s0.447-1,1-1h50c0.554,0,1,0.447,1,1S57.184,17,56.63,17z"/>
		</g>
		<g>
			<path d="M20.63,11h-2c-0.553,0-1-0.447-1-1s0.447-1,1-1h2c0.553,0,1,0.447,1,1S21.183,11,20.63,11z"/>
		</g>
		<g>
			<path d="M14.63,11h-2c-0.553,0-1-0.447-1-1s0.447-1,1-1h2c0.553,0,1,0.447,1,1S15.183,11,14.63,11z"/>
		</g>
	</g>
</g>
<g>
</g>
<g>
</g>
<g>
</g>
<g>
</g>
<g>
</g>
<g>
</g>
<g>
</g>
<g>
</g>
<g>
</g>
<g>
</g>
<g>
</g>
<g>
</g>
<g>
</g>
<g>
</g>
<g>
</g>
</svg>
