<svg width="34" height="40" viewBox="0 0 34 40" fill="none" xmlns="http://www.w3.org/2000/svg">
<path d="M16.8038 20.6343C7.8534 20.6519 0.449205 28.0531 0.00205336 37.4063C-0.00984906 37.6718 0.0300866 37.9369 0.11943 38.1857C0.208773 38.4345 0.345655 38.6617 0.521744 38.8535C0.697834 39.0453 0.909448 39.1977 1.14371 39.3013C1.37796 39.405 1.62997 39.4578 1.88438 39.4565H31.7965C32.0497 39.4557 32.3001 39.4014 32.5326 39.2968C32.7651 39.1922 32.975 39.0396 33.1495 38.848C33.324 38.6564 33.4596 38.4299 33.5481 38.1822C33.6365 37.9344 33.676 37.6705 33.6642 37.4063C33.2164 28.0413 25.7949 20.6353 16.8331 20.6343H16.8038Z" fill="white"/>
<path d="M16.8337 0C12.0892 0 8.22116 4.05895 8.22113 9.01986C8.22112 13.9808 12.0892 18.0537 16.8337 18.0537C21.5783 18.0537 25.4597 13.9808 25.4597 9.01986C25.4597 4.05895 21.5782 0 16.8337 0Z" fill="white"/>
</svg>
