<svg width="19" height="9" viewBox="0 0 19 9" fill="none" xmlns="http://www.w3.org/2000/svg">
<path d="M1.35188 8.57309C1.46775 8.69058 1.60574 8.78396 1.75788 8.84785C1.91003 8.91174 2.07332 8.94488 2.23833 8.94534C2.40334 8.94581 2.56682 8.9136 2.71932 8.85057C2.87182 8.78754 3.01034 8.69493 3.12687 8.5781L8.86801 2.86928C8.98454 2.75245 9.12305 2.65985 9.27556 2.59682C9.42806 2.53379 9.59153 2.50157 9.75655 2.50204C9.92156 2.50251 10.0849 2.53564 10.237 2.59953C10.3891 2.66342 10.5271 2.7568 10.643 2.87429L16.3518 8.61543C16.4677 8.73292 16.6057 8.8263 16.7578 8.89019C16.91 8.95408 17.0733 8.98721 17.2383 8.98768C17.4033 8.98815 17.5668 8.95593 17.7193 8.8929C17.8718 8.82987 18.0103 8.73727 18.1268 8.62044C18.3603 8.38689 18.4919 8.07045 18.4928 7.74022C18.4937 7.40999 18.3639 7.0928 18.1318 6.85795L12.4105 1.10427C11.7094 0.400039 10.7574 0.00290184 9.76361 9.69591e-05C8.76986 -0.00270792 7.81563 0.389049 7.11052 1.08931L1.35685 6.8106C1.12338 7.04414 0.991807 7.36059 0.990875 7.69082C0.989942 8.02105 1.11973 8.33823 1.35188 8.57309V8.57309Z" fill="white"/>
</svg>
