<svg width="50" height="40" viewBox="0 0 50 40" fill="none" xmlns="http://www.w3.org/2000/svg">
<path d="M23.1444 39.2132C21.2874 36.9996 18.1875 34.632 15.1854 33.1341C12.154 31.6214 9.27474 30.7813 6.00569 30.4564C5.36114 30.393 4.82677 30.3338 4.81822 30.3253C4.80989 30.3253 4.82656 23.4932 4.85989 15.162L4.91489 0.0148054L5.51006 0.0740268C9.16457 0.442047 13.2435 1.84391 16.3296 3.7978C18.9894 5.48139 21.7359 8.08122 23.4869 10.5723L23.9276 11.1992V25.5876C23.9276 33.5008 23.8942 39.9742 23.8542 39.9729C23.8126 39.9717 23.4937 39.6294 23.1444 39.2132ZM26.1718 25.5512V11.1028L27.0228 9.94839C28.1093 8.47462 30.2948 6.25423 31.7399 5.15651C35.603 2.22123 39.7936 0.562605 44.6044 0.0634512L45.2148 0V15.1684V30.3371L44.5068 30.4048C37.808 31.0376 32.0004 33.8435 27.4579 38.6413L26.1718 40V25.5512ZM30.3222 39.0178C32.9514 36.5135 36.432 34.5237 39.9283 33.525C41.7579 33.0025 44.1372 32.6379 45.7166 32.6379C46.5447 32.6379 47.004 32.456 47.2631 32.0241C47.4581 31.6984 47.4602 31.5584 47.4606 19.2673L47.4609 6.83841L47.8272 6.90609C48.0284 6.94839 48.5998 7.10914 49.0967 7.26988L50 7.56176V23.0732C50 31.6045 49.9667 38.5846 49.9254 38.5846C49.8838 38.5846 49.28 38.4535 48.5826 38.2927C45.8267 37.6624 43.557 37.4459 40.5763 37.5275C36.9607 37.629 34.1509 38.1409 30.8106 39.3126L29.5411 39.758L30.3222 39.0178ZM19.1893 39.2589C17.8021 38.7547 15.5112 38.1603 13.9647 37.904C11.8618 37.5571 10.4111 37.4649 7.83382 37.5233C5.27306 37.5783 3.72414 37.7602 1.61113 38.247C1.0203 38.3824 0.416043 38.522 0.268334 38.5516L0 38.6108L0.000458461 23.058L0.000958148 7.50465L1.148 7.16624C1.77884 6.98012 2.34997 6.80668 2.41709 6.78553C2.51417 6.74323 2.53917 9.27707 2.53917 19.2005C2.53917 32.761 2.51001 32.0051 3.07993 32.3854C3.27826 32.5165 3.69035 32.5757 4.86714 32.6476C9.54407 32.9184 13.9818 34.5127 17.6048 37.2255C18.386 37.8105 20.261 39.4171 20.3684 39.5935C20.4434 39.7162 20.3934 39.7035 19.1896 39.2635L19.1893 39.2589Z" fill="white"/>
</svg>
