<svg width="41" height="21" viewBox="0 0 41 21" fill="none" xmlns="http://www.w3.org/2000/svg">
<path d="M28.7712 5.04819L6.2714 5.14476C5.58016 5.14773 5.02381 5.70887 5.02678 6.40011L5.05897 13.9C5.06193 14.5913 5.62308 15.1476 6.31432 15.1447L28.8141 15.0481C29.5054 15.0451 30.0617 14.484 30.0587 13.7927L30.0265 6.29282C30.0236 5.60157 29.4624 5.04523 28.7712 5.04819ZM37.5157 3.76065L35.0158 3.77138C35.0069 1.7039 33.3172 0.0286361 31.2497 0.0375095L3.74997 0.155536C1.68248 0.16441 0.00722109 1.85412 0.0160946 3.9216L0.0697431 16.4215C0.0786166 18.489 1.76832 20.1642 3.8358 20.1554L31.3355 20.0373C33.403 20.0285 35.0783 18.3387 35.0694 16.2713L37.5694 16.2605C38.9494 16.2546 40.0646 15.1298 40.0586 13.7498L40.0265 6.2499C40.0205 4.87116 38.8957 3.75473 37.5157 3.76065ZM32.5694 16.282C32.5724 16.972 32.0148 17.5344 31.3248 17.5373L3.82507 17.6554C3.13508 17.6583 2.57268 17.1007 2.56972 16.4108L2.51607 3.91087C2.51311 3.22087 3.0707 2.65847 3.7607 2.65551L31.2604 2.53749C31.9504 2.53453 32.5128 3.09212 32.5158 3.78211L32.5694 16.282ZM37.5587 13.7606L35.0587 13.7713L35.0265 6.27136L37.5265 6.26063L37.5587 13.7606Z" fill="black"/>
</svg>
