<svg width="30" height="30" viewBox="0 0 30 30" fill="none" xmlns="http://www.w3.org/2000/svg">
<mask id="mask0_503_7" style="mask-type:alpha" maskUnits="userSpaceOnUse" x="0" y="0" width="30" height="30">
<rect width="30" height="30" fill="#D9D9D9"/>
</mask>
<g mask="url(#mask0_503_7)">
<path d="M8.75 27.5V20H6.75C5.91667 20 5.20833 19.7083 4.625 19.125C4.04167 18.5417 3.75 17.8333 3.75 17C3.75 16.3958 3.91667 15.8383 4.25 15.3275C4.58333 14.8175 5.02083 14.4375 5.5625 14.1875L13.75 10.5625V9.75C13 9.47917 12.3958 9.02583 11.9375 8.39C11.4792 7.755 11.25 7.04167 11.25 6.25C11.25 5.20833 11.6146 4.32292 12.3438 3.59375C13.0729 2.86458 13.9583 2.5 15 2.5C16.0417 2.5 16.9271 2.86458 17.6562 3.59375C18.3854 4.32292 18.75 5.20833 18.75 6.25H16.25C16.25 5.89583 16.1304 5.59875 15.8913 5.35875C15.6513 5.11958 15.3542 5 15 5C14.6458 5 14.3492 5.11958 14.11 5.35875C13.87 5.59875 13.75 5.89583 13.75 6.25C13.75 6.60417 13.87 6.90125 14.11 7.14125C14.3492 7.38042 14.6458 7.5 15 7.5C15.3542 7.5 15.6513 7.61958 15.8913 7.85875C16.1304 8.09875 16.25 8.39583 16.25 8.75V10.5625L24.4375 14.1875C24.9792 14.4375 25.4167 14.8175 25.75 15.3275C26.0833 15.8383 26.25 16.3958 26.25 17C26.25 17.8333 25.9583 18.5417 25.375 19.125C24.7917 19.7083 24.0833 20 23.25 20H21.25V27.5H8.75ZM6.75 17.5H8.75V16.25H21.25V17.5H23.25C23.3958 17.5 23.5158 17.4479 23.61 17.3438C23.7033 17.2396 23.75 17.1042 23.75 16.9375C23.75 16.8333 23.7242 16.7446 23.6725 16.6712C23.62 16.5987 23.5417 16.5417 23.4375 16.5L15 12.75L6.5625 16.5C6.45833 16.5417 6.38 16.5987 6.3275 16.6712C6.27583 16.7446 6.25 16.8333 6.25 16.9375C6.25 17.1042 6.29708 17.2396 6.39125 17.3438C6.48458 17.4479 6.60417 17.5 6.75 17.5ZM11.25 25H18.75V18.75H11.25V25Z" fill="#1C1B1F"/>
</g>
</svg>
