<svg width="56" height="56" viewBox="0 0 56 56" fill="none" xmlns="http://www.w3.org/2000/svg">
<mask id="mask0_353_19" style="mask-type:alpha" maskUnits="userSpaceOnUse" x="0" y="0" width="56" height="56">
<rect width="56" height="56" fill="#D9D9D9"/>
</mask>
<g mask="url(#mask0_353_19)">
<path d="M18.6667 49V44.3333H25.6667V34.7667C22.3222 34.2222 19.5417 32.6667 17.325 30.1C15.1083 27.5333 14 24.5 14 21V7H42V21C42 24.5 40.8917 27.5333 38.675 30.1C36.4583 32.6667 33.6778 34.2222 30.3333 34.7667V44.3333H37.3333V49H18.6667ZM28 30.3333C30.1778 30.3333 32.0833 29.6722 33.7167 28.35C35.35 27.0278 36.4389 25.3556 36.9833 23.3333H19.0167C19.5611 25.3556 20.65 27.0278 22.2833 28.35C23.9167 29.6722 25.8222 30.3333 28 30.3333ZM18.6667 18.6667H37.3333V11.6667H18.6667V18.6667Z" fill="black"/>
</g>
</svg>
