<svg width="40" height="40" viewBox="0 0 40 40" fill="none" xmlns="http://www.w3.org/2000/svg">
<g clip-path="url(#clip0_99_161)">
<path d="M20 40C31.0457 40 40 31.0457 40 20C40 8.95431 31.0457 0 20 0C8.95431 0 0 8.95431 0 20C0 31.0457 8.95431 40 20 40Z" fill="#859F8A"/>
<path d="M7.84918 31.1904V9.54541H21.9269V12.8323H11.7702V18.7086H21.1976V21.9956H11.7702V27.9035H22.0114V31.1904H7.84918Z" fill="#ACACAC"/>
<path d="M23.258 9.51636L29.751 9.59193L29.7425 10.3232L28.7449 10.3116L28.7441 10.3793C29.078 10.5128 29.3389 10.7315 29.527 11.0352C29.718 11.3419 29.811 11.708 29.806 12.1335C29.8007 12.5815 29.6908 12.9481 29.4761 13.2331C29.2642 13.521 28.9742 13.7346 28.6062 13.874L28.6055 13.929C28.9645 14.0798 29.2479 14.3212 29.4554 14.6535C29.6656 14.9885 29.7681 15.3927 29.7625 15.8662C29.7555 16.4693 29.5598 16.9433 29.1753 17.2883C28.7936 17.6333 28.2392 17.8017 27.512 17.7932L23.1622 17.7426L23.171 16.9901L27.5208 17.0407C28.0337 17.0468 28.4199 16.9201 28.6794 16.6611C28.9389 16.4019 29.0712 16.0582 29.0762 15.6299C29.0819 15.1339 28.9342 14.7502 28.633 14.4789C28.3317 14.2077 27.9472 14.0693 27.4793 14.0639L23.2056 14.0142L23.2145 13.2448L27.632 13.2962C28.0717 13.3013 28.4282 13.1829 28.7016 12.9408C28.975 12.6988 29.1143 12.3551 29.1194 11.9099C29.123 11.6112 29.0527 11.3412 28.9091 11.0999C28.7652 10.8615 28.5631 10.6717 28.3026 10.5306C28.0449 10.3923 27.747 10.3212 27.4088 10.3172L23.2492 10.2688L23.258 9.51636ZM22.97 21.5464C22.9745 21.1548 23.0548 20.7977 23.2107 20.4754C23.3695 20.1531 23.5951 19.8979 23.8876 19.7095C24.183 19.5213 24.5392 19.4296 24.9562 19.4345C25.2775 19.4382 25.5474 19.502 25.7657 19.6257C25.9842 19.7495 26.1625 19.9235 26.3008 20.1477C26.4392 20.372 26.5474 20.6368 26.6256 20.9421C26.7038 21.2475 26.7633 21.5836 26.8042 21.9505C26.845 22.3145 26.8808 22.6221 26.9118 22.8733C26.9426 23.1274 26.9939 23.3211 27.0656 23.4544C27.1374 23.5877 27.255 23.6552 27.4185 23.6571L27.5706 23.6589C28.0131 23.6642 28.3626 23.5357 28.6194 23.2738C28.8788 23.0146 29.0116 22.6385 29.0173 22.1454C29.0226 21.6775 28.9243 21.2944 28.722 20.9962C28.5197 20.7007 28.2797 20.4921 28.002 20.3705L28.2682 19.659C28.6217 19.8098 28.9025 20.016 29.1108 20.2777C29.322 20.5395 29.4723 20.8315 29.5614 21.1539C29.6536 21.4763 29.6976 21.8024 29.6938 22.132C29.691 22.38 29.6556 22.6375 29.5876 22.9045C29.5197 23.1743 29.4041 23.4238 29.2407 23.653C29.0801 23.8823 28.8568 24.0671 28.5705 24.2075C28.2869 24.348 27.9282 24.4157 27.4942 24.4106L23.0852 24.3593L23.0939 23.6069L24.1212 23.6188L24.1217 23.5723C23.9311 23.4799 23.7467 23.3439 23.5683 23.1643C23.3901 22.9846 23.2448 22.7602 23.1323 22.4912C23.0199 22.2221 22.9657 21.9071 22.97 21.5464ZM23.6579 21.656C23.6531 22.0561 23.7379 22.4038 23.912 22.6989C24.0862 22.994 24.3188 23.2223 24.6101 23.3836C24.9042 23.5476 25.2287 23.6317 25.5838 23.6358L26.5223 23.6468C26.4694 23.5898 26.4225 23.4948 26.3818 23.3619C26.3411 23.2318 26.3048 23.0805 26.273 22.9082C26.2439 22.7388 26.2192 22.5694 26.1986 22.4C26.178 22.2307 26.16 22.0782 26.1447 21.9427C26.1038 21.5758 26.037 21.2623 25.9442 21.0019C25.8514 20.7414 25.7213 20.5413 25.5538 20.4012C25.3892 20.2612 25.1757 20.1896 24.9137 20.1865C24.5192 20.182 24.2117 20.3193 23.9914 20.5987C23.7739 20.878 23.6627 21.2304 23.6579 21.656ZM20.627 26.3326L29.555 26.4364L29.5464 27.1679L28.3079 27.1533L28.3068 27.2421C28.5002 27.3346 28.6975 27.461 28.8986 27.6211C29.1024 27.7813 29.2733 27.9919 29.4112 28.2527C29.5491 28.5165 29.6157 28.847 29.6111 29.2444C29.6049 29.7799 29.4585 30.2461 29.172 30.643C28.8883 31.0427 28.493 31.351 27.986 31.5677C27.4817 31.7874 26.8956 31.8932 26.2276 31.8855C25.5569 31.8776 24.9706 31.7581 24.4688 31.5268C23.9669 31.2983 23.5775 30.9808 23.3004 30.5746C23.0232 30.1712 22.8877 29.7045 22.8938 29.1746C22.8985 28.783 22.9727 28.4555 23.1167 28.1923C23.2606 27.9318 23.4364 27.721 23.6441 27.5599C23.8545 27.4018 24.0588 27.2801 24.2572 27.195L24.2579 27.1274L20.6182 27.085L20.627 26.3326ZM26.2955 27.1426C25.7713 27.1365 25.3055 27.2087 24.8979 27.3589C24.493 27.512 24.1733 27.7338 23.9388 28.0242C23.7072 28.3175 23.5888 28.674 23.5839 29.0939C23.5789 29.5251 23.6931 29.89 23.9263 30.1887C24.1624 30.4902 24.4824 30.7208 24.8864 30.8806C25.2905 31.0431 25.7447 31.1273 26.2491 31.1332C26.7479 31.1389 27.1983 31.0667 27.6002 30.9164C28.0023 30.7688 28.3219 30.5471 28.5593 30.2511C28.7995 29.9551 28.9222 29.5901 28.9272 29.1561C28.9322 28.7335 28.8222 28.3727 28.5973 28.0742C28.3754 27.7757 28.0651 27.5465 27.6668 27.3869C27.2712 27.2301 26.8141 27.1487 26.2955 27.1426Z" fill="white"/>
<path d="M20.0595 14.762C18.9075 14.7633 17.8031 15.2226 16.9886 16.0392C16.1739 16.856 15.7157 17.9633 15.7143 19.1183C15.7143 20.2402 16.5806 21.9958 18.2894 24.3364C18.4929 24.6158 18.7592 24.843 19.0668 24.9998C19.3743 25.1565 19.7145 25.2382 20.0595 25.2382C20.4045 25.2382 20.7447 25.1565 21.0523 24.9998C21.3599 24.843 21.6262 24.6158 21.8297 24.3364C23.5385 21.9958 24.4048 20.2402 24.4048 19.1183C24.4033 17.9633 23.9451 16.856 23.1305 16.0392C22.316 15.2226 21.2114 14.7633 20.0595 14.762ZM20.0595 20.8547C19.7151 20.8547 19.3785 20.7523 19.092 20.5604C18.8057 20.3686 18.5825 20.0959 18.4507 19.7768C18.3189 19.4578 18.2844 19.1067 18.3516 18.768C18.4188 18.4293 18.5847 18.1183 18.8282 17.8741C19.0717 17.6299 19.382 17.4636 19.7198 17.3962C20.0576 17.3289 20.4077 17.3634 20.726 17.4955C21.0442 17.6277 21.3161 17.8515 21.5075 18.1386C21.6988 18.4258 21.801 18.7634 21.801 19.1087C21.801 19.5717 21.6175 20.0159 21.2908 20.3433C20.9643 20.6708 20.5214 20.8547 20.0595 20.8547Z" fill="#E81818"/>
</g>
<defs>
<clipPath id="clip0_99_161">
<rect width="40" height="40" fill="white"/>
</clipPath>
</defs>
</svg>
