<svg width="50" height="48" viewBox="0 0 50 48" fill="none" xmlns="http://www.w3.org/2000/svg">
<mask id="mask0_352_7" style="mask-type:alpha" maskUnits="userSpaceOnUse" x="0" y="0" width="50" height="48">
<rect width="50" height="47.1429" fill="#D9D9D9"/>
</mask>
<g mask="url(#mask0_352_7)">
<path d="M12.5 43.2142C11.3541 43.2142 10.3736 42.8298 9.55831 42.0611C8.74165 41.2911 8.33331 40.366 8.33331 39.2856V7.85704C8.33331 6.77668 8.74165 5.8515 9.55831 5.0815C10.3736 4.31281 11.3541 3.92847 12.5 3.92847H29.1666L41.6666 15.7142V39.2856C41.6666 40.366 41.259 41.2911 40.4437 42.0611C39.6271 42.8298 38.6458 43.2142 37.5 43.2142H12.5ZM27.0833 17.6785V7.85704H12.5V39.2856H37.5V17.6785H27.0833Z" fill="black"/>
</g>
</svg>
