<svg width="21" height="47" viewBox="0 0 21 47" fill="none" xmlns="http://www.w3.org/2000/svg">
<path d="M14.9805 4.96875H15.2344C15.793 4.96875 16.25 4.59609 16.25 4.14062C16.25 3.68516 15.793 3.3125 15.2344 3.3125H14.9805H5.33203H5.07812C4.51953 3.3125 4.0625 3.68516 4.0625 4.14062C4.0625 4.59609 4.51953 4.96875 5.07812 4.96875H5.33203C5.33203 4.96875 0 9.9582 0 19.875C0 23.1875 0 23.1875 0 23.1875V23.8293C0 23.9535 0.025391 24.0777 0.101563 24.202L0.279296 24.4711C0.43164 24.6988 0.43164 24.968 0.279296 25.2164L0.101563 25.5062C0.025391 25.6305 0 25.7547 0 25.8789V38.7148C0 38.8391 0.0507812 38.984 0.126953 39.1082L0.279296 39.3566C0.43164 39.5844 0.43164 39.8535 0.304687 40.102L0.126953 40.4125C0.0507812 40.516 0.0253902 40.6402 0.0253902 40.7645V42.2344C0.0253902 44.5117 2.31055 46.375 5.10351 46.375H15.2598C18.0527 46.375 20.3379 44.5117 20.3379 42.2344V40.7645C20.3379 40.6402 20.3125 40.516 20.2363 40.3918L20.0586 40.102C19.9062 39.8742 19.9062 39.6051 20.0586 39.3566L20.2363 39.0668C20.3125 38.9426 20.3379 38.8184 20.3379 38.6941V25.8375C20.3379 25.7133 20.3125 25.5891 20.2363 25.4648L20.0586 25.175C19.9062 24.9473 19.9062 24.6781 20.0586 24.4297L20.2363 24.1398C20.3125 24.0156 20.3379 23.8914 20.3379 23.7672V23.1461C20.3379 23.1461 20.3379 23.1461 20.3379 19.8336C20.3125 9.9582 14.9805 4.96875 14.9805 4.96875ZM18.2812 23.1875V23.6223L18.2051 23.7465C17.7734 24.4504 17.7734 25.2785 18.2051 25.9617L18.2812 26.0652V38.5285L18.2051 38.6527C17.7988 39.3359 17.7988 40.1641 18.2051 40.868L18.2812 40.9715V42.2344C18.2812 43.6008 16.9102 44.7188 15.2344 44.7188H5.07812C3.40234 44.7188 2.03125 43.6008 2.03125 42.2344V40.9508L2.10742 40.8059C2.51367 40.102 2.51367 39.2738 2.05664 38.5906L2.03125 38.5078V26.0652L2.10742 25.941C2.53906 25.2371 2.53906 24.409 2.10742 23.7258L2.05664 23.6223V23.1875V19.875C2.05664 10.7863 6.85547 6.08672 6.88086 6.04531C7.21094 5.73477 7.38867 5.36211 7.38867 4.94805H12.9746C12.9746 5.34141 13.1523 5.73477 13.4824 6.04531C13.4824 6.06602 14.6504 7.16328 15.8184 9.35781C16.9609 11.4902 18.3066 15.0305 18.3066 19.875V23.1875H18.2812Z" fill="black"/>
<path d="M15.2344 0.828125C15.2344 0.372656 14.7773 0 14.2188 0H6.09375C5.53516 0 5.07812 0.372656 5.07812 0.828125V2.89844H15.2344V0.828125ZM6.34766 2.07031C6.34766 2.19453 6.24609 2.27734 6.09375 2.27734C5.94141 2.27734 5.83984 2.19453 5.83984 2.07031V0.828125C5.83984 0.703906 5.94141 0.621094 6.09375 0.621094C6.24609 0.621094 6.34766 0.703906 6.34766 0.828125V2.07031ZM7.36328 2.07031C7.36328 2.19453 7.26172 2.27734 7.10938 2.27734C6.95703 2.27734 6.85547 2.19453 6.85547 2.07031V0.828125C6.85547 0.703906 6.95703 0.621094 7.10938 0.621094C7.26172 0.621094 7.36328 0.703906 7.36328 0.828125V2.07031ZM8.37891 2.07031C8.37891 2.19453 8.27734 2.27734 8.125 2.27734C7.97266 2.27734 7.87109 2.19453 7.87109 2.07031V0.828125C7.87109 0.703906 7.97266 0.621094 8.125 0.621094C8.27734 0.621094 8.37891 0.703906 8.37891 0.828125V2.07031ZM9.39453 2.07031C9.39453 2.19453 9.29297 2.27734 9.14062 2.27734C8.98828 2.27734 8.88672 2.19453 8.88672 2.07031V0.828125C8.88672 0.703906 8.98828 0.621094 9.14062 0.621094C9.29297 0.621094 9.39453 0.703906 9.39453 0.828125V2.07031ZM10.4102 2.07031C10.4102 2.19453 10.3086 2.27734 10.1562 2.27734C10.0039 2.27734 9.90234 2.19453 9.90234 2.07031V0.828125C9.90234 0.703906 10.0039 0.621094 10.1562 0.621094C10.3086 0.621094 10.4102 0.703906 10.4102 0.828125V2.07031ZM11.4258 2.07031C11.4258 2.19453 11.3242 2.27734 11.1719 2.27734C11.0195 2.27734 10.918 2.19453 10.918 2.07031V0.828125C10.918 0.703906 11.0195 0.621094 11.1719 0.621094C11.3242 0.621094 11.4258 0.703906 11.4258 0.828125V2.07031ZM12.4414 2.07031C12.4414 2.19453 12.3398 2.27734 12.1875 2.27734C12.0352 2.27734 11.9336 2.19453 11.9336 2.07031V0.828125C11.9336 0.703906 12.0352 0.621094 12.1875 0.621094C12.3398 0.621094 12.4414 0.703906 12.4414 0.828125V2.07031ZM13.457 2.07031C13.457 2.19453 13.3555 2.27734 13.2031 2.27734C13.0508 2.27734 12.9492 2.19453 12.9492 2.07031V0.828125C12.9492 0.703906 13.0508 0.621094 13.2031 0.621094C13.3555 0.621094 13.457 0.703906 13.457 0.828125V2.07031ZM14.4727 2.07031C14.4727 2.19453 14.3711 2.27734 14.2188 2.27734C14.0664 2.27734 13.9648 2.19453 13.9648 2.07031V0.828125C13.9648 0.703906 14.0664 0.621094 14.2188 0.621094C14.3711 0.621094 14.4727 0.703906 14.4727 0.828125V2.07031Z" fill="black"/>
<path d="M13.7363 18.9226C13.6348 18.9226 13.5332 18.9226 13.4063 18.9019L10.0293 18.55L6.67774 18.198C6.65234 18.198 6.62695 18.198 6.60156 18.198C6.57617 18.198 6.55078 18.198 6.52539 18.198L4.16406 18.4464C4.11328 18.4464 4.08789 18.4671 4.0625 18.4671V42.2343C4.0625 42.6898 4.51953 43.0625 5.07812 43.0625H15.2344C15.793 43.0625 16.25 42.6898 16.25 42.2343V18.7363C16.1992 18.7156 16.1484 18.7156 16.0723 18.7156C16.0469 18.7156 16.0215 18.7156 15.9961 18.7156L14.041 18.9226C13.9395 18.9226 13.8379 18.9226 13.7363 18.9226Z" fill="black"/>
</svg>
